<?xml version="1.0" standalone="no"?>
<!DOCTYPE svg PUBLIC "-//W3C//DTD SVG 20010904//EN"
 "http://www.w3.org/TR/2001/REC-SVG-20010904/DTD/svg10.dtd">
<svg version="1.0" xmlns="http://www.w3.org/2000/svg"
 width="700.000000pt" height="700.000000pt" viewBox="0 0 700.000000 700.000000"
 preserveAspectRatio="xMidYMid meet">
<metadata>
Created by potrace 1.14, written by Peter Selinger 2001-2017
</metadata>
<g transform="translate(0.000000,700.000000) scale(0.100000,-0.100000)"
fill="#000000" stroke="none">
<path d="M2707 6979 c-20 -11 -49 -38 -65 -61 -27 -41 -27 -42 -30 -240 -3
-188 -2 -202 19 -244 13 -28 37 -56 62 -72 36 -24 52 -27 139 -30 l98 -4 0
-156 c1 -87 1 -204 1 -262 1 -137 2 -130 -20 -130 -47 0 -336 -84 -466 -135
-123 -49 -281 -124 -385 -182 l-36 -20 -69 91 c-319 422 -306 410 -391 403
-47 -3 -61 -12 -214 -128 -96 -73 -172 -138 -183 -157 -28 -48 -21 -135 12
-162 4 -3 25 -30 46 -60 22 -30 48 -64 57 -75 9 -11 64 -82 121 -158 l104
-138 -94 -97 c-316 -325 -534 -682 -685 -1122 -22 -63 -41 -126 -44 -140 -3
-14 -9 -38 -14 -55 -5 -16 -14 -57 -21 -90 -7 -33 -14 -64 -15 -70 -5 -24 -26
-154 -31 -195 -2 -25 -8 -68 -12 -96 -10 -69 -10 -431 0 -529 16 -164 21 -193
45 -315 32 -157 91 -370 124 -445 5 -11 25 -60 45 -110 110 -272 328 -616 529
-834 47 -50 194 -194 246 -242 60 -53 238 -189 248 -189 6 0 12 -4 14 -8 4
-10 116 -84 213 -140 300 -172 677 -303 1005 -348 25 -3 54 -8 65 -10 60 -12
191 -18 355 -19 173 0 383 10 398 19 4 2 31 7 60 10 30 3 73 11 95 16 23 5 57
11 75 15 152 26 426 115 581 188 36 17 68 32 71 32 17 3 163 84 265 146 135
83 109 66 230 157 129 97 199 157 309 267 55 55 187 203 224 250 242 316 408
635 512 985 16 52 31 106 33 120 3 14 8 32 11 40 11 29 56 304 63 389 15 166
7 629 -11 660 -2 3 -7 33 -11 66 -8 72 -26 162 -61 297 -146 578 -502 1133
-974 1518 -30 25 -61 51 -68 58 -7 6 -17 12 -20 12 -4 0 -18 10 -32 23 -26 23
-211 144 -291 190 -149 85 -337 169 -508 226 -107 36 -313 91 -342 91 -18 0
-19 10 -19 275 l0 275 78 0 c120 0 167 21 217 95 18 28 20 47 20 236 0 234 -6
256 -79 307 l-39 27 -761 2 c-743 2 -762 2 -799 -18z"/>
</g>
</svg>
